<svg id="Capa_1" enable-background="new 0 0 497.237 497.237" height="512" viewBox="0 0 497.237 497.237" width="512" xmlns="http://www.w3.org/2000/svg"><g><path d="m388.238 341.076c64.642 15.432 107.035 41.279 107.035 70.565 0 47.273-110.431 85.596-246.654 85.596s-246.654-38.322-246.654-85.595c0-30.122 44.842-56.606 112.617-71.861l112.049-10.655h110.963z" fill="#bd80e1"/><g><g><g id="XMLID_171_"><g><path d="m409.218 346.683c-6.693-1.994-13.694-3.867-20.98-5.607l-50.644-11.951h-106.025-4.939l-112.049 10.655c-67.774 15.256-112.616 41.74-112.616 71.862 0 47.273 110.431 85.596 246.654 85.596 31.233 0 61.102-2.02 88.603-5.695-10.066.434-20.318.66-30.722.66-136.223 0-246.654-38.323-246.654-85.596 0-11.857 6.95-23.15 19.512-33.416 4.357-3.561 10.853-.206 10.359 5.399-.477 5.406-.886 10.856-1.219 16.351-.786 12.667 6.43 24.739 17.962 30.042 27.307 12.545 55.054 21.624 82.471 26.984l1.841.36 115.454.703 1.849-.339c29.015-5.318 58.381-14.792 87.275-28.158 11.222-5.186 18.273-16.517 17.964-28.859-.403-16.275-1.856-32.675-4.096-48.991z" fill="#af66da"/><path d="m149.321 397.985 203.581-2.847 35.834-50.743c-12.643-85.981-48.084-169.442-72.02-218.479-1.419-2.908.888-6.243 4.11-5.946l66.273 6.11c16.81 1.54 26.15-18.97 13.95-30.63l-92.04-87.95c-5.03-4.81-11.73-7.5-18.69-7.5-3.86 0-7.63.82-11.07 2.37-3.45 1.54-6.57 3.8-9.13 6.68-29.746 33.417-129.972 157.345-156.336 336.115z" fill="#cb97e7"/></g><g><g><path d="m315.758 126.154c-2.756 0-5.407-1.523-6.719-4.157-11.534-23.155-19.768-37.179-19.85-37.318-2.101-3.569-.912-8.167 2.657-10.268 3.57-2.103 8.165-.912 10.268 2.655.344.584 8.559 14.569 20.351 38.243 1.848 3.708.339 8.21-3.369 10.058-1.073.533-2.215.787-3.338.787z" fill="#af66da"/></g></g></g></g><path d="m309.009 7.5c-5.03-4.81-11.73-7.5-18.69-7.5-3.86 0-7.63.82-11.07 2.37-3.45 1.54-6.57 3.8-9.13 6.68-29.747 33.417-129.975 157.348-156.337 336.122l14.278 30.624 33.264-12.554c27.25-176.627 126.217-298.958 155.742-332.126 2.56-2.88 5.68-5.14 9.13-6.68.123-.055.249-.103.373-.156z" fill="#bd80e1"/><g id="XMLID_172_"><g><path d="m114.809 345.55c26.29 12.08 52.58 20.64 78.86 25.69l36.12 9.07h42.67l31.29-8.43c27.74-5.01 55.47-13.93 83.21-26.76l1.78-.73c2.54 17.24 4.16 34.59 4.58 51.78.11 4.36-2.4 8.38-6.36 10.21-27.5 12.72-54.99 21.6-82.49 26.64l-111.7-.68c-25.98-5.08-51.97-13.59-77.96-25.53-4.11-1.89-6.63-6.12-6.35-10.63 1.06-17.44 2.869-34.506 5.309-51.036z" fill="#bc7c63"/></g></g><g id="XMLID_173_"><g><path d="m304.469 376.94v62.41c0 10.26-8.32 18.58-18.58 18.58h-74.54c-10.26 0-18.58-8.32-18.58-18.58v-62.41c0-10.26 8.32-18.58 18.58-18.58h74.54c10.26 0 18.58 8.32 18.58 18.58zm-30 47.006v-31.602c0-2.2-1.784-3.984-3.984-3.984h-43.732c-2.2 0-3.984 1.784-3.984 3.984v31.602c0 2.2 1.784 3.984 3.984 3.984h43.732c2.2 0 3.984-1.784 3.984-3.984z" fill="#fee97d"/></g></g><g><path d="m239.793 415.647h-55.498c-4.142 0-7.5-3.358-7.5-7.5s3.358-7.5 7.5-7.5h55.498c4.142 0 7.5 3.358 7.5 7.5s-3.358 7.5-7.5 7.5z" fill="#fef0ae"/></g></g><path d="m161.322 363.242c-15.503-4.678-31.008-10.568-46.514-17.692l-1.041-.406c-2.44 16.53-4.249 33.596-5.309 51.036-.28 4.51 2.24 8.74 6.35 10.63 13.776 6.329 27.552 11.684 41.327 16.085-.565-1.451-.83-3.031-.729-4.649 1.145-18.864 3.17-37.207 5.916-55.004z" fill="#aa6a51"/></g></svg>